{
    "asset" : {
        "generator" : "Khronos glTF Blender I/O v1.3.48",
        "version" : "2.0"
    },
    "scene" : 0,
    "scenes" : [
        {
            "name" : "Scene",
            "nodes" : [
                0
            ]
        }
    ],
    "nodes" : [
        {
            "mesh" : 0,
            "name" : "delete_button"
        }
    ],
    "materials" : [
        {
            "doubleSided" : true,
            "emissiveFactor" : [
                0,
                0,
                0
            ],
            "name" : "delete_button_mat",
            "pbrMetallicRoughness" : {
                "baseColorFactor" : [
                    0.8000000715255737,
                    0.04217241704463959,
                    0.03079487755894661,
                    1
                ],
                "metallicFactor" : 0,
                "roughnessFactor" : 0.5
            }
        }
    ],
    "meshes" : [
        {
            "name" : "delete_button",
            "primitives" : [
                {
                    "attributes" : {
                        "POSITION" : 0,
                        "NORMAL" : 1,
                        "TEXCOORD_0" : 2
                    },
                    "indices" : 3,
                    "material" : 0
                }
            ]
        }
    ],
    "accessors" : [
        {
            "bufferView" : 0,
            "componentType" : 5126,
            "count" : 770,
            "max" : [
                0.11611077934503555,
                0.04326150566339493,
                0.19842882454395294
            ],
            "min" : [
                -0.21511706709861755,
                -0.021328352391719818,
                -0.1327989548444748
            ],
            "type" : "VEC3"
        },
        {
            "bufferView" : 1,
            "componentType" : 5126,
            "count" : 770,
            "type" : "VEC3"
        },
        {
            "bufferView" : 2,
            "componentType" : 5126,
            "count" : 770,
            "type" : "VEC2"
        },
        {
            "bufferView" : 3,
            "componentType" : 5123,
            "count" : 1284,
            "type" : "SCALAR"
        }
    ],
    "bufferViews" : [
        {
            "buffer" : 0,
            "byteLength" : 9240,
            "byteOffset" : 0
        },
        {
            "buffer" : 0,
            "byteLength" : 9240,
            "byteOffset" : 9240
        },
        {
            "buffer" : 0,
            "byteLength" : 6160,
            "byteOffset" : 18480
        },
        {
            "buffer" : 0,
            "byteLength" : 2568,
            "byteOffset" : 24640
        }
    ],
    "buffers" : [
        {
            "byteLength" : 27208,
            "uri" : "delete_button.bin"
        }
    ]
}
